<svg width="24" height="24" viewBox="0 0 24 24" fill="none" xmlns="http://www.w3.org/2000/svg">
<path d="M12 3C6.47712 3 2 6.5301 2 10.8846C2 13.6999 3.87173 16.1702 6.68731 17.5651C6.53413 18.0934 5.70298 20.9636 5.6699 21.189C5.6699 21.189 5.65 21.3585 5.75971 21.4231C5.86942 21.4877 5.99846 21.4375 5.99846 21.4375C6.31308 21.3936 9.64683 19.0518 10.2238 18.6452C10.8003 18.7268 11.3938 18.7692 12 18.7692C17.5229 18.7692 22 15.2392 22 10.8846C22 6.5301 17.5229 3 12 3Z" fill="black"/>
<path d="M6.471 13.638C6.15283 13.638 5.89408 13.3908 5.89408 13.087V9.65959H4.99389C4.68168 9.65959 4.42773 9.40613 4.42773 9.09469C4.42773 8.78325 4.68177 8.52979 4.99389 8.52979H7.94812C8.26033 8.52979 8.51427 8.78325 8.51427 9.09469C8.51427 9.40613 8.26023 9.65959 7.94812 9.65959H7.04793V13.087C7.04793 13.3908 6.78918 13.638 6.471 13.638ZM11.5299 13.6305C11.2893 13.6305 11.1052 13.5328 11.0498 13.3757L10.7641 12.6278L9.00485 12.6277L8.71898 13.376C8.6637 13.5329 8.47975 13.6305 8.23918 13.6305C8.11263 13.6306 7.98755 13.6034 7.87245 13.5508C7.71341 13.4775 7.56052 13.2757 7.73572 12.7316L9.11572 9.0993C9.21293 8.82305 9.50822 8.53844 9.88398 8.52988C10.2608 8.53834 10.5561 8.82305 10.6535 9.09988L12.0329 12.7306C12.2085 13.2759 12.0556 13.4778 11.8966 13.5509C11.7815 13.6034 11.6564 13.6306 11.5299 13.6305ZM10.4607 11.6058L9.88447 9.96882L9.30822 11.6058H10.4607ZM12.9614 13.5538C12.6565 13.5538 12.4085 13.3165 12.4085 13.025V9.10671C12.4085 8.78854 12.6727 8.52979 12.9974 8.52979C13.3222 8.52979 13.5864 8.78854 13.5864 9.10671V12.4961H14.8124C15.1173 12.4961 15.3652 12.7334 15.3652 13.025C15.3652 13.3165 15.1173 13.5538 14.8124 13.5538H12.9614ZM16.1666 13.6305C15.8484 13.6305 15.5897 13.3717 15.5897 13.0535V9.10671C15.5897 8.78854 15.8484 8.52979 16.1666 8.52979C16.4848 8.52979 16.7435 8.78854 16.7435 9.10671V10.3467L18.3531 8.73709C18.4359 8.6543 18.5497 8.60873 18.6731 8.60873C18.8172 8.60873 18.9618 8.67084 19.0701 8.77911C19.1712 8.88007 19.2315 9.00998 19.2398 9.14488C19.2481 9.28094 19.2028 9.40565 19.1124 9.49613L17.7977 10.8107L19.2178 12.692C19.2637 12.7524 19.2971 12.8212 19.3161 12.8946C19.3351 12.968 19.3394 13.0444 19.3286 13.1194C19.3183 13.1945 19.2932 13.2668 19.2548 13.3321C19.2164 13.3974 19.1654 13.4544 19.1048 13.4999C19.005 13.5757 18.883 13.6166 18.7577 13.6163C18.6683 13.6167 18.5801 13.5962 18.5001 13.5564C18.42 13.5166 18.3504 13.4586 18.2969 13.387L16.9439 11.5943L16.7437 11.7945V13.0532C16.7435 13.2063 16.6827 13.353 16.5745 13.4612C16.4663 13.5694 16.3196 13.6303 16.1666 13.6305Z" fill="#FFE812"/>
</svg>
