<svg width="153" height="41" viewBox="0 0 153 41" fill="none" xmlns="http://www.w3.org/2000/svg">
<path d="M149.238 37.7709V2.6081C149.238 2.45285 149.182 2.31313 149.07 2.18894C148.958 2.06474 148.817 2.00265 148.649 2.00265H145.368C144.976 2.00265 144.723 1.95607 144.611 1.86293C144.527 1.73873 144.485 1.44377 144.485 0.978035C144.485 0.574401 144.527 0.310486 144.611 0.18629C144.723 0.0620968 144.976 0 145.368 0H151.005C151.481 0 151.776 0.0931462 151.888 0.279438C152 0.434682 152.056 0.791743 152.056 1.35062V39.0283C152.056 39.5872 152 39.9443 151.888 40.0995C151.776 40.2858 151.481 40.379 151.005 40.379H145.368C144.976 40.379 144.723 40.3169 144.611 40.1927C144.527 40.0995 144.485 39.8356 144.485 39.4009C144.485 38.9352 144.527 38.6402 144.611 38.516C144.723 38.4229 144.976 38.3763 145.368 38.3763H148.649C148.817 38.3763 148.958 38.3142 149.07 38.19C149.182 38.0969 149.238 37.9571 149.238 37.7709Z" fill="#1C1C1C"/>
<path d="M128.842 5.88885V17.6141C129.234 17.5877 129.743 17.5082 130.369 17.3757C131.022 17.2432 131.531 16.9914 131.897 16.6205C132.106 16.435 132.589 16.3423 133.346 16.3423C134.129 16.3423 134.782 16.382 135.304 16.4615C135.931 16.594 136.374 16.806 136.635 17.0974C136.923 17.3624 137.04 17.6274 136.988 17.8924C136.962 18.1839 136.779 18.4356 136.44 18.6476C136.1 18.8595 135.656 18.9655 135.108 18.9655H128.842V29.6574C128.842 30.9558 128.816 32.1615 128.764 33.2744C128.711 34.4138 128.633 35.4075 128.529 36.2554C128.398 37.1033 128.241 37.7658 128.059 38.2427C127.876 38.7462 127.641 38.9979 127.354 38.9979C127.119 39.0244 126.923 38.7992 126.766 38.3222C126.636 37.8718 126.531 37.2888 126.453 36.5734C126.375 35.8844 126.322 35.1292 126.296 34.3078C126.296 33.4864 126.296 32.7179 126.296 32.0025V22.185C125.174 22.7415 123.829 23.2979 122.262 23.8544C120.696 24.3843 119.09 24.8613 117.445 25.2853C115.774 25.7092 114.155 26.0537 112.589 26.3187C111.048 26.5837 109.73 26.7162 108.633 26.7162C107.537 26.7427 106.727 26.5837 106.205 26.2392C105.709 25.8682 105.461 25.0998 105.461 23.9339V11.7714C105.461 10.9234 105.239 10.367 104.795 10.102C104.351 9.81053 103.66 9.57205 102.72 9.38657C102.171 9.30707 101.936 9.06859 102.015 8.67112C102.119 8.24716 102.485 8.02193 103.111 7.99543C103.712 7.99543 104.508 8.03518 105.5 8.11467C106.519 8.19416 107.419 8.3134 108.203 8.47239C108.646 8.55189 109.364 8.59163 110.357 8.59163C111.349 8.56513 112.236 8.51214 113.02 8.43265C113.124 8.43265 113.242 8.4194 113.372 8.3929C113.503 8.3399 113.62 8.30016 113.725 8.27366C113.829 8.22066 113.92 8.18092 113.999 8.15442C114.103 8.10142 114.182 8.06167 114.234 8.03518C114.469 7.87619 114.743 7.75695 115.056 7.67746C115.396 7.57147 115.722 7.50522 116.035 7.47872C116.584 7.47872 117.119 7.49197 117.641 7.51847C118.189 7.51847 118.751 7.54497 119.325 7.59796C119.873 7.67746 120.265 7.86294 120.5 8.15442C120.735 8.4194 120.839 8.68437 120.813 8.94935C120.735 9.26733 120.513 9.51906 120.148 9.70454C119.808 9.86353 119.351 9.94302 118.777 9.94302C118.281 9.96952 117.55 9.99602 116.584 10.0225C115.618 10.0225 114.599 10.0225 113.529 10.0225C112.458 10.0225 111.427 10.0358 110.435 10.0623C109.443 10.0623 108.673 10.0623 108.124 10.0623V22.9005C108.124 23.4569 108.255 23.8279 108.516 24.0134C108.777 24.1989 109.142 24.2916 109.612 24.2916C110.579 24.2916 111.78 24.1989 113.216 24.0134C114.652 23.8279 116.153 23.5762 117.719 23.2582C119.26 22.9402 120.787 22.5692 122.302 22.1453C123.816 21.7213 125.147 21.2709 126.296 20.7939V6.08758C126.296 5.26615 126.257 4.69645 126.179 4.37847C126.1 4.034 125.905 3.75578 125.591 3.54379C125.174 3.27881 124.664 3.04033 124.064 2.82835C123.463 2.58987 122.902 2.41763 122.38 2.31164C122.067 2.28515 121.871 2.20565 121.792 2.07316C121.74 1.91417 121.753 1.75519 121.832 1.5962C121.91 1.46371 122.04 1.33122 122.223 1.19873C122.406 1.06624 122.615 1 122.85 1C123.215 1 123.646 1.03975 124.142 1.11924C124.664 1.17224 125.2 1.23848 125.748 1.31797C126.27 1.39747 126.779 1.49021 127.275 1.5962C127.771 1.70219 128.202 1.80818 128.568 1.91418C128.803 1.99367 128.985 2.13941 129.116 2.35139C129.273 2.56337 129.312 2.8416 129.234 3.18607C129.077 3.66303 128.972 4.12674 128.92 4.57721C128.868 5.00117 128.842 5.43839 128.842 5.88885Z" fill="#1C1C1C"/>
<path d="M75.7525 4.25663C76.9781 4.25663 78.1238 4.43973 79.1896 4.80594C80.2553 5.17215 81.1745 5.6953 81.9472 6.3754C82.7465 7.02934 83.3593 7.82715 83.7856 8.76882C84.2386 9.7105 84.465 10.7568 84.465 11.9077C84.465 13.0848 84.2386 14.1442 83.7856 15.0859C83.3593 16.0014 82.7598 16.7992 81.9872 17.4793C81.2145 18.1333 80.2953 18.6433 79.2295 19.0095C78.1638 19.3496 77.0048 19.5196 75.7525 19.5196C73.1947 19.5196 71.0898 18.8395 69.4379 17.4793C67.8126 16.093 67 14.2358 67 11.9077C67 10.7568 67.2131 9.7105 67.6394 8.76882C68.0924 7.82715 68.7052 7.02934 69.4779 6.3754C70.2505 5.6953 71.1698 5.17215 72.2355 4.80594C73.3013 4.43973 74.4736 4.25663 75.7525 4.25663ZM75.7525 6.17921C73.9141 6.17921 72.462 6.75468 71.3962 7.90562C70.3571 9.0304 69.8376 10.3775 69.8376 11.947C69.8376 13.5426 70.3571 14.9028 71.3962 16.0276C72.462 17.1262 73.9141 17.6755 75.7525 17.6755C77.5643 17.6755 78.9897 17.1262 80.0288 16.0276C81.0679 14.9028 81.5875 13.5426 81.5875 11.947C81.5875 10.3775 81.0679 9.0304 80.0288 7.90562C79.0164 6.75468 77.5909 6.17921 75.7525 6.17921ZM94.5364 5.86532V16.2238C94.5364 16.9823 94.4964 17.7147 94.4165 18.421C94.3632 19.1273 94.27 19.755 94.1367 20.3043C94.0035 20.8537 93.8303 21.2983 93.6172 21.6384C93.4307 21.9523 93.2175 22.1092 92.9777 22.1092C92.7646 22.1354 92.5914 22.0046 92.4582 21.7169C92.325 21.403 92.2184 21.0106 92.1385 20.5398C92.0585 20.0951 92.0052 19.6242 91.9786 19.1273C91.9519 18.6041 91.9386 18.1202 91.9386 17.6755V6.02227C91.9386 5.21138 91.8987 4.64899 91.8187 4.3351C91.7654 3.99505 91.5789 3.7204 91.2592 3.51114C90.8329 3.24956 90.3134 3.01414 89.7005 2.80488C89.1144 2.56946 88.5415 2.39943 87.982 2.2948C87.6623 2.26865 87.4625 2.19017 87.3825 2.05939C87.3026 1.90244 87.3026 1.74549 87.3825 1.58855C87.4625 1.45776 87.5957 1.32697 87.7822 1.19618C87.9953 1.06539 88.2218 1 88.4616 1C88.8346 1 89.2742 1.03924 89.7805 1.11771C90.3134 1.17002 90.8462 1.23542 91.3791 1.31389C91.9386 1.39236 92.4715 1.48392 92.9777 1.58855C93.484 1.69318 93.9236 1.79781 94.2966 1.90244C94.5098 1.98091 94.6963 2.12478 94.8561 2.33404C95.016 2.5433 95.0426 2.81796 94.9361 3.15801C94.7762 3.62884 94.6696 4.0866 94.6163 4.53128C94.563 4.94981 94.5364 5.39449 94.5364 5.86532ZM94.4165 25.4836V33.5663C94.4165 34.7172 94.2966 35.6589 94.0568 36.3913C93.817 37.1237 93.3907 37.4899 92.7779 37.4899C92.4582 37.4899 92.2184 37.3199 92.0585 36.9799C91.8987 36.666 91.8187 36.3913 91.8187 36.1559L79.5093 36.2344C79.5093 36.2082 79.496 36.2867 79.4693 36.4698C79.4427 36.6529 79.3761 36.8621 79.2695 37.0976C79.1629 37.333 79.0164 37.5422 78.8299 37.7253C78.67 37.9084 78.4302 38 78.1105 38C77.6309 38 77.3112 37.7253 77.1513 37.176C76.9914 36.6529 76.9115 35.7504 76.9115 34.4687V27.053C76.9115 26.7914 76.8715 26.5299 76.7916 26.2683C76.7383 25.9806 76.6317 25.7582 76.4719 25.6013C76.1788 25.4443 75.8191 25.2743 75.3928 25.0912C74.9665 24.9081 74.5136 24.7773 74.034 24.6988C73.4744 24.6204 73.2746 24.3849 73.4345 23.9926C73.621 23.6002 73.9674 23.404 74.4736 23.404C74.7134 23.404 75.0331 23.4302 75.4328 23.4825C75.8591 23.5348 76.2987 23.5871 76.7516 23.6394C77.1779 23.7179 77.5909 23.7964 77.9906 23.8749C78.4169 23.9533 78.7766 24.0318 79.0697 24.1103C79.2828 24.1888 79.456 24.3326 79.5892 24.5419C79.7491 24.7511 79.789 25.0127 79.7091 25.3266C79.6292 25.4836 79.5759 25.7059 79.5492 25.9936C79.5226 26.2552 79.5093 26.5168 79.5093 26.7784V27.6416L91.8187 27.5631V25.6405C91.8187 25.4051 91.7788 25.1566 91.6988 24.895C91.6189 24.6073 91.499 24.3849 91.3391 24.228C91.0727 24.071 90.7263 23.901 90.3 23.7179C89.8737 23.5348 89.4474 23.404 89.0211 23.3256C88.4083 23.2471 88.1818 23.0117 88.3417 22.6193C88.5282 22.2269 88.8879 22.0308 89.4208 22.0308C89.6606 22.0308 89.9803 22.0569 90.38 22.1092C90.7796 22.1615 91.2059 22.2139 91.6589 22.2662C92.0852 22.3185 92.4981 22.3839 92.8978 22.4624C93.3241 22.5408 93.6838 22.6193 93.9769 22.6978C94.19 22.7762 94.3632 22.9201 94.4964 23.1294C94.6563 23.3386 94.6963 23.6133 94.6163 23.9533C94.5364 24.1103 94.4831 24.3457 94.4565 24.6596C94.4298 24.9473 94.4165 25.222 94.4165 25.4836ZM91.8187 34.4687V29.211L79.5093 29.2895V34.5472L91.8187 34.4687Z" fill="#1C1C1C"/>
<path d="M60.9999 7L58 11.6286L55 7.00001L58.0401 7.00001L60.9999 7ZM61 34H58.0001H55.0001L58 29.3714L61 34Z" fill="#1C1C1C"/>
<path d="M39.5928 15.6713C39.5928 15.5139 39.6319 15.2515 39.71 14.8843C39.8142 14.4907 39.9184 14.071 40.0226 13.625C40.1267 13.1528 40.2309 12.6937 40.3351 12.2477C40.4653 11.8017 40.5565 11.4213 40.6085 11.1065C40.6346 10.7654 40.6737 10.3194 40.7257 9.76852C40.8039 9.21759 40.869 8.65355 40.9211 8.07639C40.9732 7.47299 41.0122 6.90895 41.0383 6.38426C41.0904 5.83333 41.1294 5.38735 41.1555 5.0463C40.4523 5.09877 39.5928 5.13812 38.5771 5.16435C37.5875 5.19059 36.5457 5.21682 35.4519 5.24306C34.3841 5.29553 33.3423 5.33488 32.3266 5.36111C31.337 5.38735 30.4905 5.40046 29.7874 5.40046C29.553 5.4267 29.3186 5.46605 29.0842 5.51852C28.8758 5.54475 28.6675 5.58411 28.4591 5.63658C28.2508 5.68904 28.0424 5.74151 27.8341 5.79398C27.6518 5.84645 27.4565 5.8858 27.2481 5.91204C27.0658 5.96451 26.8835 6.01698 26.7012 6.06944C26.5449 6.09568 26.3626 6.12191 26.1543 6.14815C25.972 6.17438 25.7766 6.1875 25.5683 6.1875C25.386 6.16127 25.1906 6.12191 24.9823 6.06944C24.3052 5.96451 23.6541 5.79398 23.029 5.55787C22.404 5.32176 21.857 5.07253 21.3883 4.81018C20.7632 4.4429 20.5939 4.12809 20.8804 3.86574C21.1929 3.57716 21.7789 3.47222 22.6384 3.55093C23.1071 3.6034 23.8364 3.65587 24.826 3.70833C25.8417 3.7608 26.9226 3.78704 28.0685 3.78704C30.751 3.83951 33.134 3.83951 35.2175 3.78704C37.301 3.73457 39.085 3.59028 40.5695 3.35417C40.6737 3.35417 40.7648 3.34105 40.8429 3.31482C40.9211 3.26235 40.9992 3.22299 41.0773 3.19676C41.1555 3.14429 41.2336 3.10494 41.3117 3.0787C41.3899 3.05247 41.494 3.02624 41.6243 3C41.9368 3 42.3274 3.01312 42.7962 3.03935C43.265 3.03935 43.6687 3.05247 44.0073 3.0787C44.476 3.15741 44.7625 3.34105 44.8667 3.62963C44.9969 3.89198 44.9839 4.18056 44.8276 4.49537C44.7755 4.60031 44.7104 4.71836 44.6323 4.84954C44.5542 4.95448 44.476 5.07253 44.3979 5.2037C44.3198 5.30864 44.2547 5.4267 44.2026 5.55787C44.1505 5.68904 44.1114 5.79398 44.0854 5.87269C44.0073 6.29244 43.9161 6.76466 43.8119 7.28935C43.7338 7.78781 43.6296 8.29938 43.4994 8.82407C43.3952 9.32253 43.278 9.80787 43.1478 10.2801C43.0436 10.7523 42.9525 11.1327 42.8744 11.4213C42.692 12.287 42.4186 13.1397 42.054 13.9792C41.7154 14.7924 41.468 15.3302 41.3117 15.5926C41.5461 15.5926 41.7935 15.5795 42.054 15.5532C42.3144 15.5008 42.5097 15.4614 42.64 15.4352C42.7962 15.409 42.9525 15.3696 43.1087 15.3171C43.2911 15.2384 43.4734 15.1728 43.6557 15.1204C43.864 15.0679 44.0593 15.0154 44.2416 14.963C44.45 14.9105 44.6714 14.8711 44.9058 14.8449C45.7392 14.7662 46.4944 14.74 47.1716 14.7662C47.8747 14.7924 48.5519 14.8449 49.203 14.9236C49.7499 15.0023 50.1796 15.1728 50.4921 15.4352C50.8307 15.6975 51 16.0255 51 16.419C51 16.8125 50.7916 17.1011 50.3749 17.2847C49.9843 17.4421 49.5285 17.5077 49.0077 17.4815C48.3305 17.4815 47.6143 17.4684 46.859 17.4421C46.1298 17.4159 45.3876 17.3897 44.6323 17.3634C43.877 17.3372 43.1348 17.3241 42.4056 17.3241C41.6763 17.2978 40.9862 17.2716 40.3351 17.2454C39.3975 17.2454 38.1865 17.2585 36.702 17.2847C35.2175 17.2847 33.6939 17.2978 32.1313 17.3241C30.5947 17.3503 29.1493 17.3897 27.795 17.4421C26.4407 17.4946 25.425 17.5602 24.7479 17.6389C24.5135 17.6914 24.2921 17.7438 24.0838 17.7963C23.8754 17.8225 23.6801 17.8619 23.4978 17.9144C23.2895 17.9668 23.0811 18.0193 22.8728 18.0718C22.6904 18.1242 22.4821 18.1636 22.2477 18.1898C21.857 18.2685 21.4794 18.3079 21.1148 18.3079C20.7502 18.2816 20.2554 18.1898 19.6303 18.0324C19.1615 17.9537 18.6146 17.8225 17.9895 17.6389C17.3905 17.429 16.8566 17.2191 16.3879 17.0093C15.2159 16.4846 14.7862 16.0648 15.0987 15.75C15.4112 15.409 16.1014 15.2778 17.1692 15.3565C18.0286 15.4352 19.0183 15.5139 20.1382 15.5926C21.258 15.6451 22.7686 15.6844 24.6698 15.7106C25.7115 15.7369 26.9616 15.75 28.4201 15.75C29.9046 15.75 31.376 15.75 32.8345 15.75C34.2929 15.75 35.6342 15.75 36.8582 15.75C38.1083 15.7238 39.0199 15.6975 39.5928 15.6713ZM43.8901 36.8426L28.2247 37C27.7299 37 27.2351 36.9738 26.7402 36.9213C26.2454 36.8951 25.8027 36.7901 25.412 36.6065C25.0214 36.4228 24.7088 36.1474 24.4744 35.7801C24.24 35.439 24.1229 34.9537 24.1229 34.3241V31.8056C24.1229 30.9398 23.9666 30.402 23.6541 30.1921C23.3676 29.9823 22.8207 29.7986 22.0133 29.6412C21.4403 29.5625 21.232 29.3264 21.3883 28.9329C21.5445 28.5394 21.9873 28.3426 22.7165 28.3426C23.0811 28.3426 23.4457 28.3688 23.8103 28.4213C24.1749 28.4475 24.5396 28.4869 24.9042 28.5394C25.2427 28.5918 25.5813 28.6443 25.9199 28.6968C26.2845 28.723 26.6361 28.7361 26.9746 28.7361C27.5476 28.7623 28.4331 28.7886 29.6311 28.8148C30.8291 28.8148 32.1053 28.8148 33.4595 28.8148C34.8138 28.8148 36.129 28.8148 37.4052 28.8148C38.6813 28.7886 39.684 28.7623 40.4132 28.7361L40.4913 23.6991C39.6579 23.6991 38.6813 23.7122 37.5614 23.7384C36.4415 23.7384 35.3217 23.7515 34.2018 23.7778C33.0559 23.804 31.975 23.8434 30.9593 23.8958C29.9436 23.9221 29.1233 23.9614 28.4982 24.0139C28.4461 24.0401 28.368 24.0795 28.2638 24.1319C28.1596 24.1582 28.0555 24.1844 27.9513 24.2106C27.8211 24.2631 27.6908 24.3156 27.5606 24.3681C27.4304 24.3943 27.3002 24.4205 27.17 24.4468C26.9095 24.5255 26.6361 24.5648 26.3496 24.5648C26.0631 24.5648 25.7376 24.4992 25.373 24.3681C25.0083 24.2894 24.5396 24.1451 23.9666 23.9352C23.4197 23.6991 22.9769 23.4761 22.6384 23.2662C22.404 23.135 22.2217 22.9907 22.0914 22.8333C21.9612 22.6497 21.9091 22.4792 21.9352 22.3218C21.9873 22.1906 22.1305 22.0856 22.3649 22.0069C22.6253 21.9282 23.029 21.9282 23.5759 22.0069C24.4093 22.1381 25.2297 22.2299 26.0371 22.2824C26.8705 22.3086 27.6518 22.3218 28.381 22.3218C28.954 22.3218 29.7874 22.3218 30.8812 22.3218C31.975 22.2955 33.0949 22.2693 34.2408 22.2431C35.4128 22.2431 36.5067 22.2299 37.5224 22.2037C38.5381 22.1512 39.2803 22.0988 39.7491 22.0463C39.8272 22.0463 39.9054 22.0332 39.9835 22.0069C40.0877 21.9545 40.1918 21.9151 40.296 21.8889C40.3741 21.8364 40.4523 21.7971 40.5304 21.7708C40.6346 21.7446 40.7388 21.7184 40.8429 21.6921C41.2075 21.6921 41.5982 21.6921 42.0149 21.6921C42.4316 21.6921 42.8613 21.7315 43.3041 21.8102C43.7729 21.9151 44.0073 22.1119 44.0073 22.4005C44.0333 22.6628 43.9812 22.8989 43.851 23.1088C43.7989 23.24 43.7338 23.358 43.6557 23.463C43.6036 23.5417 43.5385 23.6204 43.4603 23.6991C43.4082 23.804 43.3562 23.909 43.3041 24.0139C43.252 24.0926 43.2259 24.1844 43.2259 24.2894L42.4056 28.7361C42.8223 28.7623 43.1608 28.841 43.4213 28.9722C43.6817 29.0772 43.8119 29.2608 43.8119 29.5231C43.8119 29.838 43.6687 30.0478 43.3822 30.1528C43.1218 30.2577 42.64 30.3102 41.9368 30.3102H26.7012V34.088C26.7012 34.5602 26.8574 34.9012 27.17 35.1111C27.5085 35.321 27.8992 35.4259 28.3419 35.4259L36.6239 35.3079C37.0926 35.3079 37.5484 35.2816 37.9911 35.2292C38.4599 35.2029 38.9287 35.0849 39.3975 34.875C39.5277 34.8225 39.7621 34.7307 40.1007 34.5995C40.4393 34.4946 40.7388 34.429 40.9992 34.4028C41.468 34.4028 41.9889 34.4028 42.5618 34.4028C43.1608 34.4028 43.6557 34.429 44.0463 34.4815C44.6193 34.5602 45.0099 34.7307 45.2183 34.9931C45.4527 35.2816 45.5699 35.5571 45.5699 35.8194C45.5438 36.0818 45.4006 36.3179 45.1402 36.5278C44.8797 36.7377 44.463 36.8426 43.8901 36.8426Z" fill="#1C1C1C"/>
<path d="M2.81811 37.7709C2.81811 37.9571 2.8742 38.0969 2.98636 38.19C3.09852 38.3142 3.23873 38.3763 3.40697 38.3763H6.68776C7.0523 38.3763 7.29065 38.4229 7.40281 38.516C7.51497 38.6402 7.57105 38.9352 7.57105 39.4009C7.57105 39.8356 7.51497 40.0995 7.40281 40.1927C7.29065 40.3169 7.0523 40.379 6.68776 40.379H1.05154C0.546798 40.379 0.238348 40.2858 0.126184 40.0995C0.0420615 39.9443 0 39.5872 0 39.0283V1.35062C0 0.791743 0.0420615 0.434682 0.126184 0.279438C0.238348 0.0931462 0.546798 0 1.05154 0H6.68776C7.0523 0 7.29065 0.0620968 7.40281 0.18629C7.51497 0.310486 7.57105 0.574401 7.57105 0.978035C7.57105 1.44377 7.51497 1.73873 7.40281 1.86293C7.29065 1.95607 7.0523 2.00265 6.68776 2.00265H3.40697C3.23873 2.00265 3.09852 2.06474 2.98636 2.18894C2.8742 2.31313 2.81811 2.45285 2.81811 2.6081V37.7709Z" fill="#1C1C1C"/>
</svg>
