<svg width="40" height="40" viewBox="0 0 40 40" fill="none" xmlns="http://www.w3.org/2000/svg">
<path d="M23.7225 23.7491L25.3622 25.3888M25.3624 27.5084L31.7267 33.8743C32.3121 34.4599 33.2615 34.46 33.847 33.8745C34.4324 33.2891 34.4325 32.3399 33.8472 31.7544L27.4829 25.3885C26.8975 24.8029 25.9481 24.8028 25.3626 25.3883C24.7772 25.9738 24.7771 26.9229 25.3624 27.5084Z" stroke="#1C1C1C" stroke-width="1.5" stroke-linecap="round" stroke-linejoin="round"/>
<path d="M7.79834 14.5344C8.67919 11.247 11.247 8.67919 14.5344 7.79834C17.8218 6.91744 21.3295 7.85734 23.7361 10.2639C26.1427 12.6705 27.0825 16.1781 26.2017 19.4656C25.3208 22.753 22.753 25.3208 19.4656 26.2017C16.1781 27.0825 12.6705 26.1427 10.2639 23.7361C7.85734 21.3295 6.91744 17.8218 7.79834 14.5344Z" stroke="#1C1C1C" stroke-width="1.5" stroke-linecap="round" stroke-linejoin="round"/>
</svg>
