<svg width="40" height="40" viewBox="0 0 40 40" fill="none" xmlns="http://www.w3.org/2000/svg">
<path d="M14.6654 23.75C13.3256 24.5235 11.675 24.5235 10.3353 23.75C8.99552 22.9765 8.17017 21.547 8.17017 20C8.17017 18.453 8.99552 17.0235 10.3353 16.25C11.675 15.4765 13.3256 15.4765 14.6654 16.25C16.0051 17.0235 16.8304 18.453 16.8304 20C16.8304 21.547 16.0051 22.9765 14.6654 23.75Z" stroke="#1C1C1C" stroke-width="1.5" stroke-linecap="round" stroke-linejoin="round"/>
<path d="M16.1447 17.6645L23.7219 13.1182" stroke="#1C1C1C" stroke-width="1.5" stroke-linecap="round" stroke-linejoin="round"/>
<path d="M16.1454 22.3389L23.7225 26.8852" stroke="#1C1C1C" stroke-width="1.5" stroke-linecap="round" stroke-linejoin="round"/>
<path d="M29.6654 14.75C28.3256 15.5235 26.675 15.5235 25.3353 14.75C23.9955 13.9765 23.1702 12.547 23.1702 11C23.1702 9.45305 23.9955 8.02355 25.3353 7.25005C26.675 6.47655 28.3256 6.47655 29.6654 7.25005C31.0051 8.02355 31.8304 9.45305 31.8304 11C31.8304 12.547 31.0051 13.9765 29.6654 14.75Z" stroke="#1C1C1C" stroke-width="1.5" stroke-linecap="round" stroke-linejoin="round"/>
<path d="M29.6654 32.75C28.3256 33.5235 26.675 33.5235 25.3353 32.75C23.9955 31.9765 23.1702 30.547 23.1702 29C23.1702 27.453 23.9955 26.0235 25.3353 25.25C26.675 24.4765 28.3256 24.4765 29.6654 25.25C31.0051 26.0235 31.8304 27.453 31.8304 29C31.8304 30.547 31.0051 31.9765 29.6654 32.75Z" stroke="#1C1C1C" stroke-width="1.5" stroke-linecap="round" stroke-linejoin="round"/>
</svg>
