<svg width="40" height="40" viewBox="0 0 40 40" fill="none" xmlns="http://www.w3.org/2000/svg">
<path d="M30 35.0001H10C8.89545 35.0001 8 34.1047 8 33.0001V32.332C8 29.4257 9.80305 26.8243 12.5245 25.8044C17.3444 23.9979 22.6556 23.9979 27.4755 25.8044C30.197 26.8243 32 29.4257 32 32.332V33.0001C32 34.1047 31.1046 35.0001 30 35.0001Z" stroke="#1C1C1C" stroke-width="1.5" stroke-linecap="round" stroke-linejoin="round"/>
<path d="M16.9505 19.4337C18.8645 20.4168 21.1351 20.4168 23.0491 19.4337C24.8304 18.5187 26.1066 16.8521 26.5256 14.8939L26.6374 14.3713C27.0659 12.3688 26.6082 10.2788 25.382 8.63865L25.2025 8.3985C23.9761 6.75815 22.0479 5.79225 19.9998 5.79225C17.9517 5.79225 16.0235 6.75815 14.7972 8.3985L14.6176 8.63865C13.3914 10.2788 12.9337 12.3688 13.3622 14.3713L13.474 14.8939C13.893 16.8521 15.1693 18.5187 16.9505 19.4337Z" stroke="#1C1C1C" stroke-width="1.5" stroke-linecap="round" stroke-linejoin="round"/>
</svg>
